<?xml version="1.0" encoding="UTF-8" standalone="no"?>
<!-- Created with Inkscape (http://www.inkscape.org/) -->

<svg
   xmlns:dc="http://purl.org/dc/elements/1.1/"
   xmlns:cc="http://creativecommons.org/ns#"
   xmlns:rdf="http://www.w3.org/1999/02/22-rdf-syntax-ns#"
   xmlns:svg="http://www.w3.org/2000/svg"
   xmlns="http://www.w3.org/2000/svg"
   xmlns:sodipodi="http://sodipodi.sourceforge.net/DTD/sodipodi-0.dtd"
   xmlns:inkscape="http://www.inkscape.org/namespaces/inkscape"
   version="1.1"
   width="1024"
   height="1024"
   id="svg2"
   inkscape:version="0.48.5 r10040"
   sodipodi:docname="btBack.svg">
  <sodipodi:namedview
     pagecolor="#ffffff"
     bordercolor="#666666"
     borderopacity="1"
     objecttolerance="10"
     gridtolerance="10"
     guidetolerance="10"
     inkscape:pageopacity="0"
     inkscape:pageshadow="2"
     inkscape:window-width="1366"
     inkscape:window-height="721"
     id="namedview10"
     showgrid="false"
     inkscape:zoom="0.23046875"
     inkscape:cx="-169.22034"
     inkscape:cy="512"
     inkscape:window-x="0"
     inkscape:window-y="0"
     inkscape:window-maximized="1"
     inkscape:current-layer="svg2" />
  <metadata
     id="metadata23">
    <rdf:RDF>
      <cc:Work
         rdf:about="">
        <dc:format>image/svg+xml</dc:format>
        <dc:type
           rdf:resource="http://purl.org/dc/dcmitype/StillImage" />
        <dc:title />
      </cc:Work>
    </rdf:RDF>
  </metadata>
  <defs
     id="defs4" />
  <path
     d="M 978.58104,82.58409 H 384.83099 c -29.66273,0 -69.30112,16.449929 -88.03026,39.47323 L 14.046886,468.89323 c -18.7291405,23.0233 -18.7291405,60.18429 0,83.24062 L 296.80073,899.79551 c 18.76217,23.0564 58.36753,41.6204 88.03026,41.6204 h 593.75005 c 29.66266,0 45.41896,-24.2786 45.41896,-53.97431 V 131.76872 c 0,-29.66273 -15.7563,-49.18463 -45.41896,-49.18463 z M 834.13214,629.65993 731.53478,732.2573 614.23817,614.9607 496.94157,732.29033 394.31117,629.65993 511.60778,512.36333 387.0111,387.73363 489.6415,285.10324 614.23817,409.73293 738.83485,285.10324 841.43221,387.73363 716.86857,512.36333 834.13214,629.65993 z"
     id="backspace"
     style="fill:#abb0b1;fill-opacity:1" />
</svg>
