<?xml version="1.0" encoding="UTF-8" standalone="no"?>
<!-- Created with Inkscape (http://www.inkscape.org/) -->

<svg
   xmlns:dc="http://purl.org/dc/elements/1.1/"
   xmlns:cc="http://creativecommons.org/ns#"
   xmlns:rdf="http://www.w3.org/1999/02/22-rdf-syntax-ns#"
   xmlns:svg="http://www.w3.org/2000/svg"
   xmlns="http://www.w3.org/2000/svg"
   xmlns:sodipodi="http://sodipodi.sourceforge.net/DTD/sodipodi-0.dtd"
   xmlns:inkscape="http://www.inkscape.org/namespaces/inkscape"
   version="1.1"
   width="30"
   height="30"
   viewBox="0 0 30 30"
   id="svg2"
   inkscape:version="0.48.5 r10040"
   sodipodi:docname="keyboard.svg"
   inkscape:export-filename="/home/fbox/virtual/ffos_apps/SmileyKB/Smiley-keyboard/style/icons/icon-128.png"
   inkscape:export-xdpi="384"
   inkscape:export-ydpi="384">
  <sodipodi:namedview
     pagecolor="#ffffff"
     bordercolor="#666666"
     borderopacity="1"
     objecttolerance="10"
     gridtolerance="10"
     guidetolerance="10"
     inkscape:pageopacity="0"
     inkscape:pageshadow="2"
     inkscape:window-width="640"
     inkscape:window-height="480"
     id="namedview6"
     showgrid="false"
     inkscape:zoom="15.733333"
     inkscape:cx="13.754299"
     inkscape:cy="14.464794"
     inkscape:window-x="0"
     inkscape:window-y="0"
     inkscape:window-maximized="0"
     inkscape:current-layer="svg2" />
  <metadata
     id="metadata10">
    <rdf:RDF>
      <cc:Work
         rdf:about="">
        <dc:format>image/svg+xml</dc:format>
        <dc:type
           rdf:resource="http://purl.org/dc/dcmitype/StillImage" />
        <dc:title></dc:title>
      </cc:Work>
    </rdf:RDF>
  </metadata>
  <defs
     id="defs8" />
  <path
     d="m 24.47807,6.54934 -19.9880041,0 c -1.11,0 -2.007,0.903 -1.997,1.8719999 l 0,11.9400001 c -0.01,1.248 0.887,2.148 1.997,2.148 l 19.9880041,0 c 1.107,0 2.012,-0.898 2.012,-2.008 l 0,-11.9400001 c 0,-1.1099999 -0.902,-2.0119999 -2.012,-2.0119999 z m -6.850197,2.9025479 c 0.939874,0.02184 1.882197,2.1004521 1.882197,2.1004521 l -3.859729,-0.08989 c 0,0 1.037751,-2.0323991 1.977532,-2.0105621 z m 3.878197,4.0254521 -0.01,2.062 -2.006,0 0,-2.062 z m -2.986,0 0,2.062 -2.03,0 0,-2.062 z m -3.026,0.03 0,2.032 -2.007,-0.03 0.003,-2.03 2.004,0.03 z m -5.02,-0.028 2.02,0 0.012,2.062 -2.03,0 z m 3.036997,-1.925 -4.0340001,0 c 0,0 1.0584701,-1.9058281 1.9756121,-1.9152261 0.937148,-0.0096 2.058388,1.9152261 2.058388,1.9152261 z m -3.9900001,1.925 0,2.062 -2.051,0 -0.01,-2.062 2.06,0 z m -5.077001,-4.0200001 2.062,0 -0.012,2.0950001 -2.064,0 0.013,-2.0950001 z m 0,4.0200001 2.076,0 0,2.062 -2.076,0 z m 4.046001,6.03 -4.026001,0.056 -0.005,-2.087 4.033001,0.03 -0.003,2 z m 0.906114,-0.842865 0.273659,-1.187135 9.8242301,0.03 0.008,2.056 c 0,0 -3.818062,1.94754 -5.502377,1.797729 -1.684315,-0.149811 -4.6035121,-2.696594 -4.6035121,-2.696594 z m 15.0938891,0.882865 -4.004,0.016 -0.012,-2.087 4.02,0.03 -0.004,2.04 z m 0.004,-4.01 -2.004,-0.03 0,-2.032 2.004,0.03 z m -2.047,-3.987 0.035,-2.0959991 2.014,0 -0.002,2.0959991 z"
     inkscape:connector-curvature="0"
     id="path4-5"
     sodipodi:nodetypes="ssccsssssaccacccccccccccccccccccccccacccccccccccccccccccccccccccczcccccccacccaccccc" />
</svg>
